<svg width="30" height="54" viewBox="0 0 30 54" fill="none" xmlns="http://www.w3.org/2000/svg">
<path d="M29.9999 46.3499V53.7749H1.7249V46.3499H11.9999V8.3999C11.5999 8.9999 10.9249 9.6749 9.9749 10.4249C9.0749 11.1249 8.0499 11.8249 6.8999 12.5249C5.7499 13.1749 4.5499 13.7249 3.2999 14.1749C2.0999 14.6249 0.999902 14.8499 -9.75467e-05 14.8499V7.1999C1.3499 7.1999 2.6999 6.8499 4.0499 6.1499C5.4499 5.4499 6.7499 4.6499 7.9499 3.7499C9.1499 2.7999 10.0999 1.9499 10.7999 1.1999C11.5499 0.4499 11.9499 0.0499011 11.9999 -9.82285e-05H20.4749V46.3499H29.9999Z" fill="white"/>
</svg>
