<svg width="38" height="54" viewBox="0 0 38 54" fill="none" xmlns="http://www.w3.org/2000/svg">
<path d="M-4.85666e-05 53.925C-4.85666e-05 50.875 0.224951 48.2 0.674951 45.9C1.12495 43.6 1.82495 41.525 2.77495 39.675C3.72495 37.825 4.92495 36.2 6.37495 34.8C7.82495 33.4 9.49995 32.125 11.4 30.975C13.25 29.875 15.15 28.85 17.1 27.9C19.1 26.95 20.95 25.95 22.65 24.9C24.35 23.85 25.7 22.625 26.7 21.225C27.75 19.775 28.275 18.025 28.275 15.975C28.275 14.325 27.925 12.875 27.225 11.625C26.575 10.375 25.575 9.40005 24.225 8.70005C22.925 7.95005 21.25 7.57505 19.2 7.57505C17.1 7.57505 15.15 7.95005 13.35 8.70005C11.6 9.40005 10.05 10.275 8.69995 11.325C7.39995 12.375 6.34995 13.4 5.54995 14.4L0.299951 8.92505C0.799951 8.32505 1.59995 7.52505 2.69995 6.52505C3.84995 5.52505 5.24995 4.52505 6.89995 3.52505C8.59995 2.52505 10.55 1.70005 12.75 1.05005C14.95 0.350046 17.425 4.57168e-05 20.175 4.57168e-05C23.975 4.57168e-05 27.15 0.700046 29.7 2.10005C32.3 3.45005 34.25 5.32505 35.55 7.72504C36.9 10.075 37.575 12.725 37.575 15.675C37.575 18.075 37.15 20.175 36.3 21.975C35.45 23.725 34.325 25.25 32.925 26.55C31.575 27.8 30.05 28.925 28.35 29.925C26.7 30.925 25.05 31.875 23.4 32.775C20.55 34.225 18.25 35.525 16.5 36.675C14.8 37.825 13.45 38.925 12.45 39.975C11.5 41.025 10.825 42.075 10.425 43.125C10.025 44.175 9.74995 45.3 9.59995 46.5H37.65V53.925H-4.85666e-05Z" fill="white"/>
</svg>
