<svg width="38" height="55" viewBox="0 0 38 55" fill="none" xmlns="http://www.w3.org/2000/svg">
<path d="M17.775 54.525C14.825 54.525 12.125 54.1 9.675 53.25C7.275 52.4 5.25 51.175 3.6 49.575C1.95 47.975 0.75 46.125 2.12342e-07 44.025L4.5 38.625C4.85 39.925 5.575 41.225 6.675 42.525C7.825 43.825 9.3 44.875 11.1 45.675C12.95 46.475 15.1 46.875 17.55 46.875C19.7 46.875 21.6 46.55 23.25 45.9C24.95 45.2 26.3 44.225 27.3 42.975C28.3 41.725 28.8 40.25 28.8 38.55C28.8 36.65 28.2 35.05 27 33.75C25.8 32.45 24.075 31.475 21.825 30.825C19.575 30.175 16.875 29.85 13.725 29.85H11.175V23.25H13.725C17.875 23.25 21.175 22.575 23.625 21.225C26.125 19.875 27.375 17.875 27.375 15.225C27.375 13.575 26.925 12.15 26.025 10.95C25.125 9.70005 23.95 8.77505 22.5 8.17505C21.05 7.52505 19.45 7.20005 17.7 7.20005C14.85 7.20005 12.375 7.85005 10.275 9.15005C8.175 10.45 6.65 12.05 5.7 13.95L0.3 8.02505C1.35 6.37505 2.8 4.95005 4.65 3.75005C6.5 2.55005 8.575 1.62505 10.875 0.975047C13.225 0.325046 15.6 4.57168e-05 18 4.57168e-05C21.5 4.57168e-05 24.625 0.625047 27.375 1.87505C30.125 3.12505 32.275 4.85005 33.825 7.05005C35.375 9.20005 36.15 11.65 36.15 14.4C36.15 16.4 35.725 18.2 34.875 19.8C34.075 21.4 32.9 22.75 31.35 23.85C29.85 24.9 28.05 25.675 25.95 26.175C28.2 26.575 30.175 27.425 31.875 28.725C33.625 30.025 34.95 31.625 35.85 33.525C36.8 35.425 37.275 37.5 37.275 39.75C37.275 42.85 36.375 45.5 34.575 47.7C32.825 49.9 30.475 51.6 27.525 52.8C24.575 53.95 21.325 54.525 17.775 54.525Z" fill="white"/>
</svg>
